<?xml version="1.0" encoding="UTF-8" standalone="no"?>
<!DOCTYPE svg PUBLIC "-//W3C//DTD SVG 1.1//EN" "http://www.w3.org/Graphics/SVG/1.1/DTD/svg11.dtd">
<svg xmlns="http://www.w3.org/2000/svg" xmlns:xlink="http://www.w3.org/1999/xlink" version="1.1" width="706pt" height="102pt" viewBox="0 0 706 102">
<g enable-background="new">
<g>
<clipPath id="cp0">
<path transform="matrix(1,0,0,-1,0,102)" d="M 0 0 L 705.8 0 L 705.8 102 L 0 102 Z " fill-rule="evenodd"/>
</clipPath>
<g clip-path="url(#cp0)">
</g>
<clipPath id="cp1">
<path transform="matrix(1,0,0,-1,0,102)" d="M 5.7 73.8 L 346.90003 73.8 L 346.90003 101.9 L 5.7 101.9 Z " fill-rule="evenodd"/>
</clipPath>
<g clip-path="url(#cp1)">
<symbol id="font_2_1">
<path d="M .21826172 .0390625 L .35205079 .025878907 L .35205079 0 L 0 0 L 0 .025878907 L .13427735 .0390625 L .13427735 .5732422 L .001953125 .5258789 L .001953125 .5517578 L .1928711 .66015627 L .21826172 .66015627 L .21826172 .0390625 Z "/>
</symbol>
<symbol id="font_2_2">
<path d="M .41308595 .18798828 C .41308595 .12906902 .39290367 .08300781 .35253907 .049804689 C .31217448 .016601563 .25504557 0 .18115235 0 C .11930338 0 .060709638 .0069986979 .0053710939 .020996094 L 0 .1586914 L .032226564 .1586914 L .05419922 .06689453 C .06689453 .059733076 .08479818 .053548177 .107910159 .048339845 C .13134766 .04313151 .15315755 .040527345 .17333985 .040527345 C .22444661 .040527345 .26220704 .052246095 .2866211 .075683597 C .31103517 .099121097 .3232422 .1381836 .3232422 .1928711 C .3232422 .23583985 .31201173 .26839195 .28955079 .29052735 C .26708985 .31298829 .23225911 .32535807 .1850586 .32763673 L .115234378 .33154298 L .115234378 .37158204 L .1850586 .37597657 C .22184246 .3779297 .24902344 .3893229 .26660157 .41015626 C .2841797 .4309896 .29296876 .4625651 .29296876 .5048828 C .29296876 .5488281 .28336589 .5807292 .26416017 .60058596 C .24527996 .62076827 .21500652 .6308594 .17333985 .6308594 C .15608724 .6308594 .13802083 .62841799 .119140628 .62353518 C .100260417 .61897787 .08365885 .61279299 .06933594 .60498049 L .052246095 .52490237 L .020019532 .52490237 L .020019532 .6508789 C .052246095 .65934249 .080078128 .6648763 .103515628 .66748049 C .12695313 .67041018 .15022786 .671875 .17333985 .671875 C .3133138 .671875 .38330079 .61816409 .38330079 .5107422 C .38330079 .46549479 .37076823 .42936198 .34570313 .40234376 C .32096354 .37565104 .28580729 .35904948 .24023438 .35253907 C .29947917 .34570313 .34309898 .32861329 .37109376 .30126954 C .39908854 .2742513 .41308595 .23649089 .41308595 .18798828 Z "/>
</symbol>
<use xlink:href="#font_2_1" transform="matrix(21.9,0,0,-21.9,10.6248049,22.5)"/>
<use xlink:href="#font_2_2" transform="matrix(21.9,0,0,-21.9,20.654149,22.713868)"/>
<symbol id="font_3_1">
<path d="M 0 0 L 0 .047851564 L .578125 .047851564 L .578125 0 L 0 0 Z "/>
</symbol>
<use xlink:href="#font_3_1" transform="matrix(13.1,0,0,-13.1,31.113625,8.526709)"/>
<use xlink:href="#font_2_1" transform="matrix(13.1,0,0,-13.1,41.351369,12)"/>
<symbol id="font_3_2">
<path d="M .016113282 .016601563 C .0053710939 .027994791 0 .040527345 0 .05419922 C 0 .067871097 .0053710939 .08040365 .016113282 .091796878 C .026855469 .10253906 .03922526 .107910159 .053222658 .107910159 C .06819662 .107910159 .080729167 .10270182 .09082031 .092285159 C .1015625 .08154297 .106933597 .068847659 .106933597 .05419922 C .106933597 .03955078 .1015625 .026855469 .09082031 .016113282 C .080729167 .0053710939 .06819662 0 .053222658 0 C .03955078 0 .02718099 .005533854 .016113282 .016601563 Z "/>
</symbol>
<use xlink:href="#font_3_2" transform="matrix(21.9,0,0,-21.9,48.215188,17.356495)"/>
<symbol id="font_2_3">
<path d="M .032226564 .5 L 0 .5 L 0 .65478518 L .40527345 .65478518 L .40527345 .6171875 L .11328125 0 L .05029297 0 L .33691407 .5800781 L .049316408 .5800781 L .032226564 .5 Z "/>
</symbol>
<use xlink:href="#font_2_3" transform="matrix(21.9,0,0,-21.9,53.643606,22.5)"/>
<use xlink:href="#font_3_1" transform="matrix(13.1,0,0,-13.1,64.113628,8.526709)"/>
<use xlink:href="#font_2_1" transform="matrix(13.1,0,0,-13.1,74.351367,12)"/>
<symbol id="font_3_3">
<path d="M .19580078 .023925782 L .19580078 0 C .06526693 .109375 0 .29231773 0 .5488281 C 0 .80826827 .06526693 .99153646 .19580078 1.0986328 L .19580078 1.0737305 C .100748699 .97998049 .053222658 .805013 .053222658 .5488281 C .053222658 .29003907 .100748699 .11507162 .19580078 .023925782 Z "/>
</symbol>
<use xlink:href="#font_3_3" transform="matrix(21.9,0,0,-21.9,83.23926,27.664893)"/>
<symbol id="font_2_4">
<path d="M .4008789 0 L 0 0 L 0 .071777347 L .09082031 .15429688 C .14908855 .20540364 .19189453 .2467448 .21923828 .2783203 C .24658203 .30989585 .26611329 .3424479 .27783204 .37597657 C .2898763 .40950523 .29589845 .44791667 .29589845 .49121095 C .29589845 .5335286 .28629557 .5657552 .26708985 .5878906 C .24788411 .61002609 .21647136 .62109377 .17285156 .62109377 C .15559896 .62109377 .13785808 .61865237 .119628909 .61376956 C .10139974 .6092122 .08528646 .60302737 .07128906 .59521487 L .05419922 .5151367 L .021972657 .5151367 L .021972657 .6411133 C .081217449 .65511068 .13151042 .6621094 .17285156 .6621094 C .24446614 .6621094 .2981771 .64713546 .33398438 .6171875 C .3701172 .5875651 .3881836 .54557296 .3881836 .49121095 C .3881836 .4547526 .38102214 .4202474 .36669923 .3876953 C .3527018 .35546876 .3310547 .3232422 .3017578 .29101563 C .27246095 .2591146 .22395833 .21435547 .15625 .15673828 C .12727864 .1319987 .09651693 .10481771 .063964847 .07519531 L .4008789 .07519531 L .4008789 0 Z "/>
</symbol>
<use xlink:href="#font_2_4" transform="matrix(21.9,0,0,-21.9,90.6624,22.5)"/>
<symbol id="font_3_4">
<path d="M .19384766 0 L .19384766 .19580078 L 0 .19580078 L 0 .27783204 L .19384766 .27783204 L .19384766 .47265626 L .27685548 .47265626 L .27685548 .27783204 L .4716797 .27783204 L .4716797 .19580078 L .27685548 .19580078 L .27685548 0 L .19384766 0 Z "/>
</symbol>
<use xlink:href="#font_3_4" transform="matrix(21.9,0,0,-21.9,102.92973,21.270264)"/>
<symbol id="font_2_5">
<path d="M 0 .46484376 C 0 .53059896 .018391928 .58154299 .05517578 .6176758 C .09195963 .6538086 .1438802 .671875 .2109375 .671875 C .28548179 .671875 .3400065 .64501956 .37451173 .5913086 C .40934245 .53759768 .4267578 .45345054 .4267578 .3388672 C .4267578 .22916667 .40445964 .1451823 .35986329 .08691406 C .31526695 .028971354 .25260417 0 .171875 0 C .1188151 0 .07014974 .005533854 .025878907 .016601563 L .025878907 .12988281 L .057617189 .12988281 L .07470703 .059570314 C .085123699 .0546875 .099121097 .05029297 .11669922 .04638672 C .13427735 .04248047 .15201824 .040527345 .16992188 .040527345 C .2220052 .040527345 .26204429 .063313808 .29003907 .10888672 C .31803385 .15478516 .3334961 .22216797 .33642579 .31103517 C .28694663 .28336589 .23665364 .26953126 .18554688 .26953126 C .12792969 .26953126 .08251953 .2866211 .049316408 .32080079 C .016438803 .355306 0 .4033203 0 .46484376 M .21191406 .6328125 C .13053386 .6328125 .08984375 .5761719 .08984375 .46289063 C .08984375 .41308595 .099609378 .3763021 .119140628 .35253907 C .13867188 .32877604 .16894531 .31689454 .20996094 .31689454 C .25195313 .31689454 .29427085 .32552085 .33691407 .34277345 C .33691407 .44270835 .3269857 .5159505 .3071289 .5625 C .28759767 .609375 .25585938 .6328125 .21191406 .6328125 Z "/>
</symbol>
<use xlink:href="#font_2_5" transform="matrix(21.9,0,0,-21.9,116.60577,22.713868)"/>
<use xlink:href="#font_3_4" transform="matrix(21.9,0,0,-21.9,129.92974,21.270264)"/>
<symbol id="font_2_6">
<path d="M .4272461 .21289063 C .4272461 .14485677 .4099935 .092285159 .37548829 .05517578 C .3413086 .018391928 .29182945 0 .22705078 0 C .15348308 0 .09716797 .028645834 .05810547 .0859375 C .01936849 .14322917 0 .22558594 0 .3330078 C 0 .4033203 .010253906 .46402995 .030761719 .5151367 C .05126953 .56624349 .07991537 .60514327 .11669922 .63183596 C .1538086 .6585286 .19661458 .671875 .24511719 .671875 C .29264323 .671875 .3400065 .6661784 .38720704 .65478518 L .38720704 .5419922 L .35498048 .5419922 L .33789063 .6088867 C .32714845 .6147461 .31266276 .6197917 .2944336 .62402346 C .27620445 .62858077 .25976563 .6308594 .24511719 .6308594 C .19759114 .6308594 .16048177 .6077474 .13378906 .56152346 C .107421878 .515625 .092936199 .44840495 .09033203 .35986329 C .14339192 .38785807 .19661458 .40185548 .25 .40185548 C .3076172 .40185548 .3515625 .38557945 .38183595 .35302735 C .41210938 .32080079 .4272461 .27408854 .4272461 .21289063 M .22509766 .03857422 C .2644857 .03857422 .29296876 .05126953 .31054688 .076660159 C .328125 .102376308 .33691407 .14469402 .33691407 .20361328 C .33691407 .2569987 .32845054 .2955729 .31152345 .31933595 C .29492188 .34309898 .26839195 .35498048 .2319336 .35498048 C .18733724 .35498048 .13997396 .34684245 .08984375 .3305664 C .08984375 .23128255 .10107422 .15771485 .123535159 .10986328 C .1459961 .06233724 .17985027 .03857422 .22509766 .03857422 Z "/>
</symbol>
<use xlink:href="#font_2_6" transform="matrix(21.9,0,0,-21.9,143.94101,22.713868)"/>
<use xlink:href="#font_3_4" transform="matrix(21.9,0,0,-21.9,156.12973,21.270264)"/>
<use xlink:href="#font_2_3" transform="matrix(21.9,0,0,-21.9,170.6436,22.5)"/>
<use xlink:href="#font_3_4" transform="matrix(21.9,0,0,-21.9,183.22974,21.270264)"/>
<symbol id="font_2_7">
<path d="M .42382813 .33984376 C .42382813 .11328125 .35221354 0 .20898438 0 C .13997396 0 .087890628 .028971354 .052734376 .08691406 C .017578125 .14485677 0 .22916667 0 .33984376 C 0 .4482422 .017578125 .5310872 .052734376 .5883789 C .087890628 .6459961 .14127605 .6748047 .21289063 .6748047 C .28190104 .6748047 .3343099 .6463216 .3701172 .58935549 C .40592448 .53271487 .42382813 .44954429 .42382813 .33984376 M .33398438 .33984376 C .33398438 .44466148 .324056 .5201823 .30419923 .56640627 C .28434245 .6126302 .25260417 .6357422 .20898438 .6357422 C .16666667 .6357422 .13623047 .6139323 .11767578 .5703125 C .099121097 .5266927 .08984375 .44986979 .08984375 .33984376 C .08984375 .22916667 .09928385 .15120442 .11816406 .10595703 C .13704427 .061035158 .1673177 .03857422 .20898438 .03857422 C .25195313 .03857422 .28352867 .06217448 .30371095 .109375 C .32389323 .15690105 .33398438 .23372396 .33398438 .33984376 Z "/>
</symbol>
<use xlink:href="#font_2_7" transform="matrix(21.9,0,0,-21.9,197.03408,22.713868)"/>
<use xlink:href="#font_3_4" transform="matrix(21.9,0,0,-21.9,209.42974,21.270264)"/>
<use xlink:href="#font_2_2" transform="matrix(21.9,0,0,-21.9,223.44794,22.713868)"/>
<symbol id="font_3_5">
<path d="M 0 .023925782 C .0953776 .115722659 .1430664 .2906901 .1430664 .5488281 C .1430664 .80338546 .0953776 .97835287 0 1.0737305 L 0 1.0986328 C .07128906 1.0419922 .12320963 .9583333 .15576172 .84765627 C .18245442 .7604167 .19580078 .6608073 .19580078 .5488281 C .19580078 .2890625 .13053386 .10611979 0 0 L 0 .023925782 Z "/>
</symbol>
<use xlink:href="#font_3_5" transform="matrix(21.9,0,0,-21.9,235.81528,27.664893)"/>
<symbol id="font_3_6">
<path d="M 0 0 L 0 .06201172 L .578125 .06201172 L .578125 0 L 0 0 M 0 .24316406 L 0 .30615235 L .578125 .30615235 L .578125 .24316406 L 0 .24316406 Z "/>
</symbol>
<use xlink:href="#font_3_6" transform="matrix(21.9,0,0,-21.9,243.56324,19.366847)"/>
<symbol id="font_2_8">
<path d="M .11816406 .05908203 C .11816406 .04313151 .112467449 .029296875 .10107422 .017578125 C .09000651 .005859375 .07600912 0 .05908203 0 C .04215495 0 .027994791 .005859375 .016601563 .017578125 C .005533854 .029296875 0 .04313151 0 .05908203 C 0 .075683597 .0056966149 .08968099 .017089844 .10107422 C .028483073 .112467449 .04248047 .11816406 .05908203 .11816406 C .075683597 .11816406 .08968099 .112467449 .10107422 .10107422 C .112467449 .08968099 .11816406 .075683597 .11816406 .05908203 Z "/>
</symbol>
<use xlink:href="#font_2_7" transform="matrix(21.9,0,0,-21.9,260.0341,22.713868)"/>
<use xlink:href="#font_2_8" transform="matrix(21.9,0,0,-21.9,271.54985,22.810109)"/>
<path transform="matrix(1,0,0,-1,0,102)" d="M 279.4 77.3 L 343.3 77.3 L 343.3 78 L 279.4 78 Z " fill-rule="evenodd"/>
<use xlink:href="#font_2_4" transform="matrix(21.9,0,0,-21.9,278.8624,22.5)"/>
<use xlink:href="#font_2_5" transform="matrix(21.9,0,0,-21.9,289.57768,22.713868)"/>
<use xlink:href="#font_2_6" transform="matrix(21.9,0,0,-21.9,300.78486,22.713868)"/>
<use xlink:href="#font_2_3" transform="matrix(21.9,0,0,-21.9,312.19367,22.5)"/>
<use xlink:href="#font_2_7" transform="matrix(21.9,0,0,-21.9,322.49037,22.713868)"/>
<use xlink:href="#font_2_2" transform="matrix(21.9,0,0,-21.9,333.61045,22.713868)"/>
</g>
<clipPath id="cp4">
<path transform="matrix(1,0,0,-1,0,102)" d="M 0 0 L 705.8 0 L 705.8 102 L 0 102 Z " fill-rule="evenodd"/>
</clipPath>
<g clip-path="url(#cp4)">
<symbol id="font_2_9">
<path d="M 0 0 Z "/>
</symbol>
<use xlink:href="#font_2_9" transform="matrix(12,0,0,-12,248.3,47.8)"/>
</g>
<clipPath id="cp5">
<path transform="matrix(1,0,0,-1,0,102)" d="M 583.2 49.6 L 257 49.6 L 257 73.7 L 583.2 73.7 L 583.2 49.6 Z " fill-rule="evenodd"/>
</clipPath>
<g clip-path="url(#cp5)">
<use xlink:href="#font_2_7" transform="matrix(21.9,0,0,-21.9,260.73408,47.913869)"/>
<use xlink:href="#font_2_8" transform="matrix(21.9,0,0,-21.9,272.24983,48.01011)"/>
<path transform="matrix(1,0,0,-1,0,102)" d="M 279.4 52.1 L 299.5 52.1 L 299.5 52.8 L 279.4 52.8 Z " fill-rule="evenodd"/>
<use xlink:href="#font_2_4" transform="matrix(21.9,0,0,-21.9,279.5624,47.7)"/>
<use xlink:href="#font_2_5" transform="matrix(21.9,0,0,-21.9,290.21199,47.913869)"/>
<use xlink:href="#font_3_4" transform="matrix(21.9,0,0,-21.9,303.12974,46.470266)"/>
<use xlink:href="#font_2_7" transform="matrix(21.9,0,0,-21.9,316.93409,47.913869)"/>
<use xlink:href="#font_2_8" transform="matrix(21.9,0,0,-21.9,328.44984,48.01011)"/>
<path transform="matrix(1,0,0,-1,0,102)" d="M 335.7 52.1 L 356.1 52.1 L 356.1 52.8 L 335.7 52.8 Z " fill-rule="evenodd"/>
<use xlink:href="#font_2_6" transform="matrix(21.9,0,0,-21.9,335.841,47.913869)"/>
<use xlink:href="#font_2_3" transform="matrix(21.9,0,0,-21.9,347.24983,47.7)"/>
<use xlink:href="#font_3_4" transform="matrix(21.9,0,0,-21.9,359.42976,46.470266)"/>
<use xlink:href="#font_2_7" transform="matrix(21.9,0,0,-21.9,373.23408,47.913869)"/>
<use xlink:href="#font_2_8" transform="matrix(21.9,0,0,-21.9,384.74983,48.01011)"/>
<path transform="matrix(1,0,0,-1,0,102)" d="M 392.7 52.1 L 412.90003 52.1 L 412.90003 52.8 L 392.7 52.8 Z " fill-rule="evenodd"/>
<use xlink:href="#font_2_7" transform="matrix(21.9,0,0,-21.9,392.0341,47.913869)"/>
<use xlink:href="#font_2_2" transform="matrix(21.9,0,0,-21.9,403.15419,47.913869)"/>
<use xlink:href="#font_3_6" transform="matrix(21.9,0,0,-21.9,416.7632,44.566846)"/>
<use xlink:href="#font_2_7" transform="matrix(21.9,0,0,-21.9,433.23408,47.913869)"/>
<use xlink:href="#font_2_8" transform="matrix(21.9,0,0,-21.9,444.74983,48.01011)"/>
<path transform="matrix(1,0,0,-1,0,102)" d="M 451.9 52.1 L 483.19999 52.1 L 483.19999 52.8 L 451.9 52.8 Z " fill-rule="evenodd"/>
<use xlink:href="#font_2_4" transform="matrix(21.9,0,0,-21.9,452.1624,47.7)"/>
<use xlink:href="#font_2_5" transform="matrix(21.9,0,0,-21.9,462.8777,47.913869)"/>
<use xlink:href="#font_2_6" transform="matrix(21.9,0,0,-21.9,474.01918,47.913869)"/>
<use xlink:href="#font_3_4" transform="matrix(21.9,0,0,-21.9,486.92976,46.470266)"/>
<use xlink:href="#font_2_7" transform="matrix(21.9,0,0,-21.9,500.73408,47.913869)"/>
<use xlink:href="#font_2_8" transform="matrix(21.9,0,0,-21.9,512.2498,48.01011)"/>
<path transform="matrix(1,0,0,-1,0,102)" d="M 519.4 52.1 L 550.4 52.1 L 550.4 52.8 L 519.4 52.8 Z " fill-rule="evenodd"/>
<use xlink:href="#font_2_3" transform="matrix(21.9,0,0,-21.9,519.3436,47.7)"/>
<use xlink:href="#font_2_7" transform="matrix(21.9,0,0,-21.9,529.70608,47.913869)"/>
<use xlink:href="#font_2_2" transform="matrix(21.9,0,0,-21.9,540.8261,47.913869)"/>
<use xlink:href="#font_3_6" transform="matrix(21.9,0,0,-21.9,554.06326,44.566846)"/>
<use xlink:href="#font_2_1" transform="matrix(21.9,0,0,-21.9,571.6248,47.7)"/>
</g>
<clipPath id="cp6">
<path transform="matrix(1,0,0,-1,0,102)" d="M 0 0 L 705.8 0 L 705.8 102 L 0 102 Z " fill-rule="evenodd"/>
</clipPath>
<g clip-path="url(#cp6)">
<use xlink:href="#font_2_9" transform="matrix(12,0,0,-12,283.7,72)"/>
<use xlink:href="#font_2_9" transform="matrix(12,0,0,-12,286.7,72)"/>
<use xlink:href="#font_2_9" transform="matrix(12,0,0,-12,289.7,72)"/>
<use xlink:href="#font_2_9" transform="matrix(12,0,0,-12,292.7,72)"/>
<use xlink:href="#font_2_9" transform="matrix(12,0,0,-12,295.7,72)"/>
<use xlink:href="#font_2_9" transform="matrix(12,0,0,-12,298.7,72)"/>
<use xlink:href="#font_2_9" transform="matrix(12,0,0,-12,301.7,72)"/>
<use xlink:href="#font_2_9" transform="matrix(12,0,0,-12,304.7,72)"/>
</g>
<clipPath id="cp7">
<path transform="matrix(1,0,0,-1,0,102)" d="M 313.3 25.3 L 639.4 25.3 L 639.4 49.4 L 313.3 49.4 Z " fill-rule="evenodd"/>
</clipPath>
<g clip-path="url(#cp7)">
<use xlink:href="#font_2_7" transform="matrix(21.890034,0,0,-21.8,317.1337,72.11289)"/>
<use xlink:href="#font_2_8" transform="matrix(21.890034,0,0,-21.8,328.5785,72.208698)"/>
<path transform="matrix(1,0,0,-1,0,102)" d="M 335.8 27.9 L 356.19999 27.9 L 356.19999 28.6 L 335.8 28.6 Z " fill-rule="evenodd"/>
<use xlink:href="#font_2_6" transform="matrix(21.890034,0,0,-21.8,336.0406,72.11289)"/>
<use xlink:href="#font_2_3" transform="matrix(21.890034,0,0,-21.8,347.48796,71.9)"/>
<use xlink:href="#font_3_4" transform="matrix(21.890034,0,0,-21.8,359.52919,70.67588)"/>
<use xlink:href="#font_2_7" transform="matrix(21.890034,0,0,-21.8,373.43373,72.11289)"/>
<use xlink:href="#font_2_8" transform="matrix(21.890034,0,0,-21.8,384.8785,72.208698)"/>
<path transform="matrix(1,0,0,-1,0,102)" d="M 392.8 27.9 L 413 27.9 L 413 28.6 L 392.8 28.6 Z " fill-rule="evenodd"/>
<use xlink:href="#font_2_7" transform="matrix(21.890034,0,0,-21.8,392.93373,72.11289)"/>
<use xlink:href="#font_2_2" transform="matrix(21.890034,0,0,-21.8,404.0925,72.11289)"/>
<use xlink:href="#font_3_4" transform="matrix(21.890034,0,0,-21.8,416.52919,70.67588)"/>
<use xlink:href="#font_2_7" transform="matrix(21.890034,0,0,-21.8,430.43373,72.11289)"/>
<use xlink:href="#font_2_8" transform="matrix(21.890034,0,0,-21.8,441.8785,72.208698)"/>
<path transform="matrix(1,0,0,-1,0,102)" d="M 449.1 27.9 L 469.2 27.9 L 469.2 28.6 L 449.1 28.6 Z " fill-rule="evenodd"/>
<use xlink:href="#font_2_4" transform="matrix(21.890034,0,0,-21.8,449.26197,71.9)"/>
<use xlink:href="#font_2_5" transform="matrix(21.890034,0,0,-21.8,459.95045,72.11289)"/>
<use xlink:href="#font_3_6" transform="matrix(21.890034,0,0,-21.8,473.16215,68.78115)"/>
<use xlink:href="#font_2_7" transform="matrix(21.890034,0,0,-21.8,489.6337,72.11289)"/>
<use xlink:href="#font_2_8" transform="matrix(21.890034,0,0,-21.8,501.0785,72.208698)"/>
<path transform="matrix(1,0,0,-1,0,102)" d="M 508.3 27.9 L 539.39999 27.9 L 539.39999 28.6 L 508.3 28.6 Z " fill-rule="evenodd"/>
<use xlink:href="#font_2_6" transform="matrix(21.890034,0,0,-21.8,508.5406,72.11289)"/>
<use xlink:href="#font_2_3" transform="matrix(21.890034,0,0,-21.8,519.988,71.9)"/>
<use xlink:href="#font_2_7" transform="matrix(21.890034,0,0,-21.8,530.4113,72.11289)"/>
<use xlink:href="#font_3_4" transform="matrix(21.890034,0,0,-21.8,542.5292,70.67588)"/>
<use xlink:href="#font_2_7" transform="matrix(21.890034,0,0,-21.8,556.43368,72.11289)"/>
<use xlink:href="#font_2_8" transform="matrix(21.890034,0,0,-21.8,567.8785,72.208698)"/>
<path transform="matrix(1,0,0,-1,0,102)" d="M 575.8 27.9 L 606.7 27.9 L 606.7 28.6 L 575.8 28.6 Z " fill-rule="evenodd"/>
<use xlink:href="#font_2_2" transform="matrix(21.890034,0,0,-21.8,575.3475,72.11289)"/>
<use xlink:href="#font_2_4" transform="matrix(21.890034,0,0,-21.8,586.207,71.9)"/>
<use xlink:href="#font_2_5" transform="matrix(21.890034,0,0,-21.8,596.98306,72.11289)"/>
<use xlink:href="#font_3_6" transform="matrix(21.890034,0,0,-21.8,610.46218,68.78115)"/>
<use xlink:href="#font_2_1" transform="matrix(21.890034,0,0,-21.8,628.0239,71.9)"/>
</g>
<clipPath id="cp8">
<path transform="matrix(1,0,0,-1,0,102)" d="M 0 0 L 705.8 0 L 705.8 102 L 0 102 Z " fill-rule="evenodd"/>
</clipPath>
<g clip-path="url(#cp8)">
<use xlink:href="#font_2_9" transform="matrix(12,0,0,-12,354.6,96.3)"/>
<use xlink:href="#font_2_9" transform="matrix(12,0,0,-12,357.6,96.3)"/>
<use xlink:href="#font_2_9" transform="matrix(12,0,0,-12,360.6,96.3)"/>
<use xlink:href="#font_2_9" transform="matrix(12,0,0,-12,363.6,96.3)"/>
</g>
<clipPath id="cp9">
<path transform="matrix(1,0,0,-1,0,102)" d="M 372.1 1 L 698.80007 1 L 698.80007 25.1 L 372.1 25.1 Z " fill-rule="evenodd"/>
</clipPath>
<g clip-path="url(#cp9)">
<use xlink:href="#font_2_7" transform="matrix(21.9,0,0,-21.9,376.0341,96.413867)"/>
<use xlink:href="#font_2_8" transform="matrix(21.9,0,0,-21.9,387.54985,96.5101)"/>
<path transform="matrix(1,0,0,-1,0,102)" d="M 394.7 3.6 L 414.90003 3.6 L 414.90003 4.2999999 L 394.7 4.2999999 Z " fill-rule="evenodd"/>
<use xlink:href="#font_2_7" transform="matrix(21.9,0,0,-21.9,394.73408,96.413867)"/>
<use xlink:href="#font_2_2" transform="matrix(21.9,0,0,-21.9,405.85417,96.413867)"/>
<use xlink:href="#font_3_4" transform="matrix(21.9,0,0,-21.9,418.42976,94.97026)"/>
<use xlink:href="#font_2_7" transform="matrix(21.9,0,0,-21.9,432.23408,96.413867)"/>
<use xlink:href="#font_2_8" transform="matrix(21.9,0,0,-21.9,443.74983,96.5101)"/>
<path transform="matrix(1,0,0,-1,0,102)" d="M 450.9 3.6 L 471 3.6 L 471 4.2999999 L 450.9 4.2999999 Z " fill-rule="evenodd"/>
<use xlink:href="#font_2_4" transform="matrix(21.9,0,0,-21.9,451.1624,96.2)"/>
<use xlink:href="#font_2_5" transform="matrix(21.9,0,0,-21.9,461.81199,96.413867)"/>
<use xlink:href="#font_3_4" transform="matrix(21.9,0,0,-21.9,474.62974,94.97026)"/>
<use xlink:href="#font_2_7" transform="matrix(21.9,0,0,-21.9,488.5341,96.413867)"/>
<use xlink:href="#font_2_8" transform="matrix(21.9,0,0,-21.9,500.04985,96.5101)"/>
<path transform="matrix(1,0,0,-1,0,102)" d="M 507.2 3.6 L 527.60006 3.6 L 527.60006 4.2999999 L 507.2 4.2999999 Z " fill-rule="evenodd"/>
<use xlink:href="#font_2_6" transform="matrix(21.9,0,0,-21.9,507.341,96.413867)"/>
<use xlink:href="#font_2_3" transform="matrix(21.9,0,0,-21.9,518.74978,96.2)"/>
<use xlink:href="#font_3_6" transform="matrix(21.9,0,0,-21.9,532.06326,93.06684)"/>
<use xlink:href="#font_2_7" transform="matrix(21.9,0,0,-21.9,548.5341,96.413867)"/>
<use xlink:href="#font_2_8" transform="matrix(21.9,0,0,-21.9,560.0498,96.5101)"/>
<path transform="matrix(1,0,0,-1,0,102)" d="M 567.2 3.6 L 598.2 3.6 L 598.2 4.2999999 L 567.2 4.2999999 Z " fill-rule="evenodd"/>
<use xlink:href="#font_2_7" transform="matrix(21.9,0,0,-21.9,567.23416,96.413867)"/>
<use xlink:href="#font_2_2" transform="matrix(21.9,0,0,-21.9,578.4199,96.413867)"/>
<use xlink:href="#font_2_4" transform="matrix(21.9,0,0,-21.9,589.24057,96.2)"/>
<use xlink:href="#font_3_4" transform="matrix(21.9,0,0,-21.9,601.42977,94.97026)"/>
<use xlink:href="#font_2_7" transform="matrix(21.9,0,0,-21.9,615.23416,96.413867)"/>
<use xlink:href="#font_2_8" transform="matrix(21.9,0,0,-21.9,626.7498,96.5101)"/>
<path transform="matrix(1,0,0,-1,0,102)" d="M 633.9 3.6 L 665.4 3.6 L 665.4 4.2999999 L 633.9 4.2999999 Z " fill-rule="evenodd"/>
<use xlink:href="#font_2_5" transform="matrix(21.9,0,0,-21.9,633.90579,96.413867)"/>
<use xlink:href="#font_2_6" transform="matrix(21.9,0,0,-21.9,645.113,96.413867)"/>
<use xlink:href="#font_2_3" transform="matrix(21.9,0,0,-21.9,656.5217,96.2)"/>
<use xlink:href="#font_3_6" transform="matrix(21.9,0,0,-21.9,670.06326,93.06684)"/>
<use xlink:href="#font_2_1" transform="matrix(21.9,0,0,-21.9,686.8248,96.2)"/>
</g>
</g>
</g>
</svg>
